Genre: Action | Comedy | Sci-Fi
Language:English 
http://www.imdb.com/title/tt1409024/
Source:Unknown Thanks!
Encoder:Tony

Format : AVI
Format/Info : Audio Video Interleave
File size : 1.06 GiB
Duration : 1h 37mn
Overall bit rate : 1 566 Kbps

Video
ID : 0
Format : MPEG-4 Visual
Format profile : Advanced Simple@L5
Format settings, BVOP : 1
Format settings, QPel : No
Format settings, GMC : No warppoints
Format settings, Matrix : Default (H.263)
Codec ID : XVID
Codec ID/Hint : XviD
Duration : 1h 37mn
Bit rate : 1 365 Kbps
Width : 640 pixels
Height : 304 pixels
Display aspect ratio : 2.105
Frame rate : 25.000 fps
Color space : YUV
Chroma subsampling : 4:2:0
Bit depth : 8 bits
Scan type : Progressive
Compression mode : Lossy
Bits/(Pixel*Frame) : 0.281
Stream size : 947 MiB (87%)
Writing library : XviD 1.2.1 (UTC 2008-12-04)

Audio
ID : 1
Format : AC-3
Format/Info : Audio Coding 3
Mode extension : CM (complete main)
Format settings, Endianness : Big
Codec ID : 2000
Duration : 1h 37mn
Bit rate mode : Constant
Bit rate : 192 Kbps
Channel(s) : 2 channels
Channel positions : Front: L R
Sampling rate : 48.0 KHz
Bit depth : 16 bits
Compression mode : Lossy
Stream size : 133 MiB (12%)
Alignment : Aligned on interleaves
Interleave, duration : 40 ms (1.00 video frame)
Interleave, preload duration : 512 ms


Plot:
Agent J travels in time to MIB's early years in the 1960s, to stop an alien from assassinating his friend Agent K and changing history.
 
http://img210.imageshack.us/img210/3791/vlcsnap2012053120h38m35.png 
http://img204.imageshack.us/img204/8249/vlcsnap2012053120h38m42.png 
http://img4.imageshack.us/img4/1139/vlcsnap2012053120h40m13.png 
http://img4.imageshack.us/img4/112/vlcsnap2012053120h39m04.png